#!OML:ASF H:\Terrain\Patient Classification 1\Walking\liu\liu.ASF
:FULLY-SPECIFIED
:DEGREES
318
root 9.84156 16.4632 8.04825 7.91408 9.09832 5.41991
lowerback -8.35041 -5.00052 -7.58537
upperback -0.998806 -6.02962 1.67019
thorax 4.59437 -3.14566 5.21858
lowerneck -18.9588 -5.17976 -12.9426
upperneck 21.4597 -6.65917 12.9086
head 10.9566 -2.62409 5.88792
rclavicle 7.02952e-014 1.27222e-014
rhumerus -50.1324 4.9257 -82.7955
rradius 30.4501
rwrist -15.8193
rhand -29.8429 -21.3189
rfingers 7.12502
rthumb -3.16574 -51.2752
lclavicle 7.02952e-014 1.27222e-014
lhumerus -17.6967 -40.0478 95.3817
lradius 41.6359
lwrist 12.5633
lhand -5.49076 -23.543
lfingers 7.12502
lthumb 20.3218 5.41384
rfemur -42.974 3.90949 9.5351
rtibia 28.8385
rfoot -21.6823 -8.64675
rtoes -27.6789
lfemur 19.9321 3.69821 -25.485
ltibia 4.45278e-014
lfoot -11.8928 -3.51409
ltoes -4.27634
319
root 9.83113 16.4372 8.24171 7.8572 9.17318 5.71601
lowerback -8.29009 -4.98488 -7.71391
upperback -1.05237 -5.99346 1.4666
thorax 4.48927 -3.12208 5.08879
lowerneck -19.5088 -5.3391 -12.5455
upperneck 22.1253 -6.85297 12.3264
head 11.3004 -2.7277 5.58736
rclavicle 4.48011e-014 1.35174e-014
rhumerus -50.3497 5.02837 -83.0043
rradius 30.4702
rwrist -15.2242
rhand -28.5721 -24.1432
rfingers 7.12502
rthumb -1.93846 -54.1142
lclavicle 4.48011e-014 1.35174e-014
lhumerus -18.7185 -40.4145 95.9892
lradius 41.9616
lwrist 12.383
lhand -5.24591 -23.4967
lfingers 7.12502
lthumb 20.5571 5.4349
rfemur -42.935 3.01747 9.9169
rtibia 29.8792
rfoot -19.1833 -6.93302
rtoes -30.4191
lfemur 20.7272 3.79858 -25.4517
ltibia 4.77083e-014
lfoot -11.2958 -3.75144
ltoes -4.0751
320
root 9.82607 16.4211 8.44487 7.705 9.34093 6.04996
lowerback -8.27325 -5.0102 -7.89076
upperback -1.02334 -6.00432 1.3116
thorax 4.51328 -3.13008 5.02219
lowerneck -19.5107 -5.38947 -12.7483
upperneck 22.1057 -6.90293 12.4905
head 11.3163 -2.74884 5.67722
rclavicle -3.73715e-014 1.35174e-014
rhumerus -50.3964 4.79884 -82.7993
rradius 30.5968
rwrist -15.3766
rhand -27.3928 -26.7366
rfingers 7.12502
rthumb -0.799467 -56.7149
lclavicle -3.73715e-014 1.35174e-014
lhumerus -19.5796 -40.8251 96.6054
lradius 42.1354
lwrist 12.1402
lhand -4.9937 -23.3371
lfingers 7.12502
lthumb 20.7995 5.56804
rfemur -42.8098 1.94895 10.2181
rtibia 30.8306
rfoot -15.6134 -5.27741
rtoes -30.2195
lfemur 21.6958 3.81531 -25.4822
ltibia -2.22639e-014
lfoot -10.7449 -3.64437
ltoes -4.51139
321
root 9.79169 16.4043 8.64633 7.66374 9.32182 5.56265
lowerback -8.49663 -4.94059 -7.59504
upperback -0.978207 -5.92685 1.47826
thorax 4.66217 -3.09436 5.02548
lowerneck -19.1757 -5.31167 -13.1562
upperneck 21.5393 -6.80646 13.0761
head 11.0667 -2.68301 5.96909
rclavicle -9.83984e-015 -8.74653e-015
rhumerus -50.5051 4.80984 -82.7623
rradius 30.835
rwrist -16.0617
rhand -28.1028 -26.064
rfingers 7.12502
rthumb -1.48516 -56.0386
lclavicle -9.83984e-015 -8.74653e-015
lhumerus -20.0618 -41.0095 97.1006
lradius 42.0265
lwrist 11.4004
lhand -4.55118 -23.3899
lfingers 7.12502
lthumb 21.2246 5.46807
rfemur -43.1148 2.34671 10.8708
rtibia 31.6991
rfoot -12.4993 -4.88248
rtoes -29.3129
lfemur 22.3141 4.05263 -24.5318
ltibia -5.40694e-014
lfoot -10.1559 -4.00988
ltoes -7.61502
322
root 9.77629 16.3955 8.8364 7.55755 9.52757 5.19507
lowerback -8.41142 -4.95454 -7.17645
upperback -1.0415 -5.99817 1.59539
thorax 4.52804 -3.11752 4.91468
lowerneck -18.8924 -5.23793 -13.2949
upperneck 21.1843 -6.69313 13.2076
head 10.8739 -2.63715 6.04795
rclavicle -1.19271e-014 4.77083e-015
rhumerus -50.7051 4.91358 -82.7844
rradius 30.6994
rwrist -16.0945
rhand -28.7372 -23.6975
rfingers 7.12502
rthumb -2.09793 -53.6669
lclavicle -1.19271e-014 4.77083e-015
lhumerus -20.6812 -40.7554 97.6815
lradius 41.838
lwrist 10.524
lhand -4.59486 -23.8922
lfingers 7.12502
lthumb 21.1826 4.9705
rfemur -43.2056 2.18823 11.4346
rtibia 32.6382
rfoot -9.99632 -3.76927
rtoes -28.1197
lfemur 22.9422 4.07756 -23.7497
ltibia -2.8625e-014
lfoot -9.44763 -4.29606
ltoes -11.4677
323
root 9.76576 16.3871 9.03208 7.38199 9.71921 4.88397
lowerback -8.27688 -4.96701 -6.84925
upperback -1.09767 -6.06207 1.731
thorax 4.38394 -3.13953 4.87892
lowerneck -19.1858 -5.32771 -13.1634
upperneck 21.5719 -6.7269 12.6973
head 11.0525 -2.69001 5.83755
rclavicle 2.4376e-014 -1.82882e-014
rhumerus -50.7862 4.79954 -82.5025
rradius 30.4343
rwrist -15.4243
rhand -28.5038 -23.0469
rfingers 7.12502
rthumb -1.87248 -53.0185
lclavicle 2.4376e-014 -1.82882e-014
lhumerus -21.4912 -40.2837 98.4711
lradius 41.6215
lwrist 9.75635
lhand -5.05327 -24.3725
lfingers 7.12502
lthumb 20.7422 4.53896
rfemur -43.0283 1.70657 12.1211
rtibia 33.6463
rfoot -8.12835 -2.53958
rtoes -27.0419
lfemur 23.744 4.10582 -23.0364
ltibia 6.36111e-015
lfoot -8.46146 -4.59073
ltoes -13.276
